<?xml version="1.0" standalone="no"?>
<!DOCTYPE svg PUBLIC "-//W3C//DTD SVG 1.1//EN" "http://www.w3.org/Graphics/SVG/1.1/DTD/svg11.dtd" >
<svg xmlns="http://www.w3.org/2000/svg">
<metadata></metadata>
<defs>
<font id="douchepacbold" horiz-adv-x="1194" >
<font-face units-per-em="2048" ascent="1536" descent="-512" />
<missing-glyph horiz-adv-x="500" />
<glyph unicode="PAC&#x2d;MAN&#x20;&#x20;&#x20;&#x20;&#x20;&#x20;&#x20;&#x20;" horiz-adv-x="682" />
<glyph horiz-adv-x="0" />
<glyph horiz-adv-x="682" />
<glyph unicode="!" horiz-adv-x="512" d="M119 -34v239h274v-239h-274zM119 307v1092h274v-1092h-274z" />
<glyph unicode="&#x22;" horiz-adv-x="853" d="M119 990v409h274v-409h-274zM461 990v409h273v-409h-273z" />
<glyph unicode="#" horiz-adv-x="1365" d="M-51 307v239h341v273h-171v239h342v341h273v-341h239v341h273v-341h171v-239h-342v-273h171v-239h-341v-341h-274v341h-238v-341h-274v341h-170zM563 546h239v273h-239v-273z" />
<glyph unicode="$" d="M119 137v238h274v-170h68v444h-171v170h-171v410h171v170h171v171h273v-171h171v-170h170v-239h-273v171h-68v-274h171v-170h170v-580h-170v-171h-171v-171h-273v171h-171v171h-171zM393 887h68v274h-68v-274zM734 205h68v444h-68v-444z" />
<glyph unicode="%" horiz-adv-x="1877" d="M-51 34h170v171h171v170h171v171h170v171h171v170h171v171h170v171h171v170h171v171h170v171h274v-239h-171v-171h-171v-170h-170v-171h-171v-171h-171v-170h-170v-171h-171v-171h-171v-170h-170v-171h-171v-171h-273v239zM119 990v580h171v171h273v-171h171v-580h-171 v-171h-273v171h-171zM393 1058h68v444h-68v-444zM1143 -34v580h171v171h273v-171h171v-580h-171v-171h-273v171h-171zM1417 34h68v444h-68v-444z" />
<glyph unicode="&#x26;" horiz-adv-x="1365" d="M119 137v409h171v171h171v102h-171v410h171v170h444v-170h170v-239h-170v-171h-171v-102h171v-171h341v-239h-171v-102h171v-239h-273v171h-68v-171h-615v171h-171zM393 205h238v170h171v103h-171v171h-68v-171h-170v-273zM563 887h68v171h171v103h-239v-274z" />
<glyph unicode="'" horiz-adv-x="512" d="M119 990v409h274v-409h-274z" />
<glyph unicode="(" horiz-adv-x="512" d="M119 -34v1263h171v341h273v-409h-170v-1127h170v-409h-273v341h-171z" />
<glyph unicode=")" horiz-adv-x="512" d="M-51 34h170v1127h-170v409h273v-341h171v-1263h-171v-341h-273v409z" />
<glyph unicode="*" d="M119 1161v238h342v342h273v-342h341v-238h-341v-103h171v-239h-274v171h-68v-171h-273v239h171v103h-342zM563 1229h68v102h-68v-102z" />
<glyph unicode="+" horiz-adv-x="1536" d="M119 478v239h512v512h274v-512h512v-239h-512v-512h-274v512h-512z" />
<glyph unicode="," horiz-adv-x="512" d="M-51 -34v239h444v-410h-171v-170h-273v238h170v103h-170z" />
<glyph unicode="-" d="M119 819v239h956v-239h-956z" />
<glyph unicode="." horiz-adv-x="512" d="M119 -34v239h274v-239h-274z" />
<glyph unicode="/" horiz-adv-x="853" d="M-51 -205v410h170v341h171v341h171v342h170v341h274v-409h-171v-342h-171v-341h-170v-341h-171v-342h-273z" />
<glyph unicode="0" d="M119 137v1092h171v170h615v-170h170v-1092h-170v-171h-615v171h-171zM393 205h238v170h171v444h-68v-170h-171v-171h-170v-273zM393 717h68v170h170v171h171v103h-409v-444z" />
<glyph unicode="1" horiz-adv-x="853" d="M119 990v239h171v170h273v-1433h-273v1024h-171z" />
<glyph unicode="2" d="M119 -34v409h171v171h171v171h170v170h171v274h-409v-171h-274v239h171v170h615v-170h170v-410h-170v-170h-171v-171h-171v-171h-170v-102h682v-239h-956z" />
<glyph unicode="3" d="M119 137v238h274v-170h238v170h171v274h-341v238h341v274h-409v-171h-274v239h171v170h615v-170h170v-410h-170v-102h170v-580h-170v-171h-615v171h-171z" />
<glyph unicode="4" d="M119 307v410h171v341h171v171h170v170h274v-853h170v-239h-170v-341h-274v341h-512zM393 546h68v103h-68v-103zM563 717h68v273h-68v-273z" />
<glyph unicode="5" d="M119 137v238h274v-170h238v170h171v274h-512v170h-171v580h956v-238h-682v-274h512v-170h170v-580h-170v-171h-615v171h-171z" />
<glyph unicode="6" d="M119 137v580h171v341h171v341h273v-409h-171v-103h342v-170h170v-580h-170v-171h-615v171h-171zM393 205h238v170h171v274h-409v-444z" />
<glyph unicode="7" d="M119 1161v238h956v-580h-170v-170h-171v-342h-171v-341h-273v409h171v342h170v170h171v274h-683z" />
<glyph unicode="8" d="M119 137v580h171v102h-171v410h171v170h615v-170h170v-410h-170v-102h170v-580h-170v-171h-615v171h-171zM393 205h238v170h171v274h-409v-444zM393 887h238v171h171v103h-409v-274z" />
<glyph unicode="9" d="M119 649v580h171v170h615v-170h170v-580h-170v-171h-171v-171h-171v-341h-273v409h171v103h-171v171h-171zM393 717h238v170h171v274h-409v-444z" />
<glyph unicode=":" horiz-adv-x="512" d="M119 -34v239h274v-239h-274zM119 649v238h274v-238h-274z" />
<glyph unicode=";" horiz-adv-x="512" d="M-51 -137h170v342h274v-410h-171v-170h-273v238zM119 649v238h274v-238h-274z" />
<glyph unicode="&#x3c;" horiz-adv-x="1706" d="M119 478v239h342v170h341v171h341v171h444v-239h-341v-171h-341v-170h-342v-103h342v-171h341v-170h341v-239h-444v171h-341v170h-341v171h-342z" />
<glyph unicode="=" horiz-adv-x="1536" d="M119 307v239h1298v-239h-1298zM119 819v239h1298v-239h-1298z" />
<glyph unicode="&#x3e;" horiz-adv-x="1706" d="M119 -34v239h342v170h341v171h341v103h-341v170h-341v171h-342v239h444v-171h342v-171h341v-170h341v-239h-341v-171h-341v-170h-342v-171h-444z" />
<glyph unicode="?" d="M119 990v239h171v170h615v-170h170v-410h-170v-170h-171v-342h-273v410h170v170h171v274h-409v-171h-274zM461 -34v239h273v-239h-273z" />
<glyph unicode="@" horiz-adv-x="2218" d="M119 137v750h171v342h171v170h341v171h615v-171h341v-170h171v-342h170v-750h-170v-171h-171v-171h-444v171h-512v171h-171v750h171v171h615v-171h170v-853h68v171h171v614h-171v342h-341v170h-409v-170h-342v-342h-170v-614h170v-342h342v-170h341v-239h-444v171h-341 v170h-171v342h-171zM119 -16862h274v-239h-274v239zM905 205h238v170h171v444h-409v-614z" />
<glyph unicode="A" d="M119 -34v1263h171v170h615v-170h170v-1263h-273v683h-409v-683h-274zM393 887h238v171h171v103h-409v-274z" />
<glyph unicode="B" d="M119 -34v1433h786v-170h170v-410h-170v-102h170v-580h-170v-171h-786zM393 205h238v170h171v274h-409v-444zM393 887h238v171h171v103h-409v-274z" />
<glyph unicode="C" d="M119 137v1092h171v170h615v-170h170v-239h-273v171h-409v-956h238v170h444v-238h-170v-171h-615v171h-171z" />
<glyph unicode="D" d="M119 -34v1433h786v-170h170v-1092h-170v-171h-786zM393 205h238v170h171v786h-409v-956z" />
<glyph unicode="E" d="M119 -34v1433h956v-238h-682v-274h512v-238h-512v-444h682v-239h-956z" />
<glyph unicode="F" d="M119 -34v1433h956v-238h-682v-274h512v-238h-512v-683h-274z" />
<glyph unicode="G" d="M119 137v1092h171v170h615v-170h170v-239h-273v171h-409v-956h238v170h171v274h-341v238h444v-170h170v-580h-170v-171h-615v171h-171z" />
<glyph unicode="H" d="M119 -34v1433h274v-512h409v512h273v-1433h-273v683h-409v-683h-274z" />
<glyph unicode="I" horiz-adv-x="512" d="M119 -34v1433h274v-1433h-274z" />
<glyph unicode="J" horiz-adv-x="512" d="M-222 -307h341v1706h274v-1774h-171v-171h-444v239z" />
<glyph unicode="K" d="M119 -34v1433h274v-512h238v171h171v341h273v-580h-170v-273h170v-580h-273v512h-171v171h-238v-683h-274z" />
<glyph unicode="L" horiz-adv-x="682" d="M119 -34v1433h274v-1194h341v-239h-615z" />
<glyph unicode="M" horiz-adv-x="1877" d="M119 -34v1433h444v-170h171v-512h171v-342h68v342h170v512h171v170h444v-1433h-273v1195h-68v-512h-171v-342h-171v-341h-273v341h-171v342h-170v512h-68v-1195h-274z" />
<glyph unicode="N" d="M119 -34v1433h444v-341h171v-512h68v853h273v-1433h-273v171h-171v341h-170v512h-68v-1024h-274z" />
<glyph unicode="O" d="M119 137v1092h171v170h615v-170h170v-1092h-170v-171h-615v171h-171zM393 205h238v170h171v786h-409v-956z" />
<glyph unicode="P" d="M119 -34v1433h786v-170h170v-410h-170v-170h-512v-683h-274zM393 887h238v171h171v103h-409v-274z" />
<glyph unicode="Q" d="M119 137v1092h171v170h615v-170h170v-1092h-170v-103h170v-239h-273v171h-512v171h-171zM393 205h238v170h171v786h-409v-956z" />
<glyph unicode="R" d="M119 -34v1433h786v-170h170v-410h-170v-102h170v-751h-273v683h-409v-683h-274zM393 887h238v171h171v103h-409v-274z" />
<glyph unicode="S" d="M119 137v238h274v-170h409v444h-512v170h-171v410h171v170h615v-170h170v-239h-273v171h-409v-274h512v-170h170v-580h-170v-171h-615v171h-171z" />
<glyph unicode="T" horiz-adv-x="853" d="M-51 1161v238h956v-238h-342v-1195h-273v1195h-341z" />
<glyph unicode="U" d="M119 -34v1433h274v-1194h238v170h171v1024h273v-1262h-170v-171h-786z" />
<glyph unicode="V" d="M119 649v750h274v-682h170v-342h68v342h171v682h273v-750h-170v-512h-171v-171h-273v171h-171v512h-171z" />
<glyph unicode="W" horiz-adv-x="1877" d="M119 -34v1433h274v-1194h238v170h171v1024h273v-1194h239v170h171v1024h273v-1262h-171v-171h-614v171h-68v-171h-786z" />
<glyph unicode="X" d="M119 -34v409h171v342h171v102h-171v171h-171v409h274v-341h170v-171h68v171h171v341h273v-409h-170v-171h-171v-102h171v-342h170v-409h-273v341h-171v342h-68v-342h-170v-341h-274z" />
<glyph unicode="Y" d="M119 819v580h274v-512h170v-341h68v341h171v512h273v-580h-170v-341h-171v-341h-171v-171h-273v239h171v273h-171v341h-171z" />
<glyph unicode="Z" d="M119 -34v580h171v171h171v170h170v171h171v103h-683v238h956v-409h-170v-171h-171v-170h-171v-171h-170v-273h682v-239h-956z" />
<glyph unicode="[" horiz-adv-x="512" d="M119 -375v1945h444v-239h-170v-1468h170v-238h-444z" />
<glyph unicode="\" horiz-adv-x="853" d="M-51 1161v409h273v-341h171v-342h170v-341h171v-341h171v-410h-274v342h-170v341h-171v341h-171v342h-170z" />
<glyph unicode="]" horiz-adv-x="512" d="M-51 -137h170v1468h-170v239h444v-1945h-444v238z" />
<glyph unicode="^" horiz-adv-x="1536" d="M119 307v410h171v341h171v341h170v171h274v-171h170v-341h171v-341h171v-410h-274v342h-170v341h-171v341h-68v-341h-171v-341h-170v-342h-274z" />
<glyph unicode="_" horiz-adv-x="1024" d="M119 -34v239h786v-239h-786z" />
<glyph unicode="`" horiz-adv-x="682" d="M119 1331v239h274v-171h170v-238h-273v170h-171z" />
<glyph unicode="a" d="M119 137v750h171v171h615v-171h170v-921h-785v171h-171zM393 205h238v170h171v444h-409v-614z" />
<glyph unicode="b" d="M119 -34v1604h274v-512h512v-171h170v-750h-170v-171h-786zM393 205h238v170h171v444h-409v-614z" />
<glyph unicode="c" d="M119 137v750h171v171h615v-171h170v-238h-273v170h-409v-614h238v170h444v-238h-170v-171h-615v171h-171z" />
<glyph unicode="d" d="M119 137v750h171v171h512v512h273v-1604h-785v171h-171zM393 205h238v170h171v444h-409v-614z" />
<glyph unicode="e" d="M119 137v750h171v171h615v-171h170v-409h-682v-273h238v170h444v-238h-170v-171h-615v171h-171zM393 717h409v102h-409v-102z" />
<glyph unicode="f" horiz-adv-x="682" d="M-51 -307h170v1706h171v171h615v-239h-512v-273h341v-239h-341v-1194h-171v-171h-273v239z" />
<glyph unicode="g" d="M119 -137h274v-170h238v170h171v103h-512v171h-171v750h171v171h615v-171h170v-1262h-170v-171h-615v171h-171v238zM393 205h238v170h171v444h-409v-614z" />
<glyph unicode="h" d="M119 -34v1604h274v-683h68v171h444v-171h170v-921h-273v853h-239v-170h-170v-683h-274z" />
<glyph unicode="i" horiz-adv-x="512" d="M119 -34v1092h274v-1092h-274zM119 1161v238h274v-238h-274z" />
<glyph unicode="j" horiz-adv-x="512" d="M-51 -307h170v1365h274v-1433h-171v-171h-273v239zM119 1161v238h274v-238h-274z" />
<glyph unicode="k" d="M119 -34v1604h274v-853h238v170h171v171h273v-409h-170v-103h170v-580h-273v512h-409v-512h-274z" />
<glyph unicode="l" horiz-adv-x="512" d="M119 137v1433h274v-1365h170v-239h-273v171h-171z" />
<glyph unicode="m" horiz-adv-x="1877" d="M119 -34v1092h274v-171h68v171h444v-171h238v171h444v-171h171v-921h-273v853h-239v-170h-171v-683h-273v853h-239v-170h-170v-683h-274z" />
<glyph unicode="n" d="M119 -34v1092h274v-171h68v171h444v-171h170v-921h-273v853h-239v-170h-170v-683h-274z" />
<glyph unicode="o" d="M119 137v750h171v171h615v-171h170v-750h-170v-171h-615v171h-171zM393 205h238v170h171v444h-409v-614z" />
<glyph unicode="p" d="M119 -546v1433h171v171h615v-171h170v-750h-170v-171h-512v-512h-274zM393 205h238v170h171v444h-409v-614z" />
<glyph unicode="q" d="M119 137v750h171v171h615v-171h170v-1433h-273v512h-512v171h-171zM393 205h238v170h171v444h-409v-614z" />
<glyph unicode="r" horiz-adv-x="853" d="M119 -34v1092h274v-171h68v171h444v-239h-342v-170h-170v-683h-274z" />
<glyph unicode="s" d="M119 137v238h274v-170h238v170h171v103h-512v171h-171v238h171v171h615v-171h170v-238h-170v-103h170v-409h-170v-171h-615v171h-171zM393 717h409v102h-409v-102z" />
<glyph unicode="t" horiz-adv-x="682" d="M119 137v1092h274v-171h341v-239h-341v-614h170v-239h-273v171h-171z" />
<glyph unicode="u" d="M119 137v921h274v-853h238v170h171v683h273v-921h-170v-171h-615v171h-171z" />
<glyph unicode="v" d="M119 478v580h274v-512h170v-171h68v171h171v512h273v-580h-170v-341h-171v-171h-273v171h-171v341h-171z" />
<glyph unicode="w" horiz-adv-x="1877" d="M119 137v921h274v-853h238v170h171v683h273v-853h239v170h171v683h273v-921h-171v-171h-614v171h-68v-171h-615v171h-171z" />
<glyph unicode="x" d="M119 -34v409h171v171h171v103h-171v170h-171v239h274v-171h170v-170h68v170h171v171h273v-239h-170v-170h-171v-103h171v-171h170v-409h-273v341h-171v171h-68v-171h-170v-341h-274z" />
<glyph unicode="y" d="M119 -307h171v170h171v274h-171v341h-171v580h274v-512h170v-171h68v171h171v512h273v-580h-170v-341h-171v-342h-171v-170h-170v-171h-274v239z" />
<glyph unicode="z" d="M119 -34v409h171v171h171v171h341v102h-683v239h956v-409h-170v-171h-342v-171h-170v-102h682v-239h-956z" />
<glyph unicode="{" horiz-adv-x="682" d="M119 478v239h171v682h171v171h273v-239h-171v-682h-170v-103h170v-683h171v-238h-273v170h-171v683h-171z" />
<glyph unicode="|" horiz-adv-x="512" d="M119 -546v2116h274v-2116h-274z" />
<glyph unicode="}" horiz-adv-x="682" d="M-51 -137h170v683h171v103h-171v682h-170v239h273v-171h171v-682h170v-239h-170v-683h-171v-170h-273v238z" />
<glyph unicode="~" horiz-adv-x="1706" d="M119 307v239h171v171h615v-171h409v171h273v-239h-170v-171h-615v171h-409v-171h-274z" />
<glyph unicode="&#xa1;" horiz-adv-x="2048" d="M119 -546v1263h274v-1263h-274zM119 819v239h274v-239h-274z" />
<glyph unicode="&#xa2;" d="M119 307v751h171v171h171v170h273v-170h171v-171h170v-239h-273v171h-68v-444h341v-239h-170v-170h-171v-171h-273v171h-171v170h-171zM393 375h68v615h-68v-615z" />
<glyph unicode="&#xa3;" d="M119 -34v409h171v274h-171v238h171v342h171v170h444v-170h170v-239h-273v171h-239v-274h171v-238h-171v-342h-170v-102h682v-239h-956z" />
<glyph unicode="&#xa4;" d="M-51 137v238h170v786h-170v238h273v-170h751v170h273v-238h-171v-786h171v-238h-273v170h-751v-170h-273zM393 546h238v171h171v273h-409v-444z" />
<glyph unicode="&#xa5;" d="M119 990v409h274v-341h170v-171h68v171h171v341h273v-409h-170v-171h-171v-102h171v-239h-171v-103h171v-238h-171v-171h-273v171h-171v238h171v103h-171v239h171v102h-171v171h-171z" />
<glyph unicode="&#xa6;" horiz-adv-x="512" d="M119 375h274v-921h-274v921zM119 819v751h274v-751h-274z" />
<glyph unicode="&#xa7;" d="M119 -137h274v-170h238v170h171v103h-341v171h-171v170h-171v410h171v273h-171v409h171v171h615v-171h170v-238h-273v170h-409v-273h170v-171h342v-170h170v-410h-170v-273h170v-409h-170v-171h-615v171h-171v238zM393 375h238v171h171v103h-409v-274z" />
<glyph unicode="&#xa8;" horiz-adv-x="853" d="M119 1161v238h274v-238h-274zM461 1161v238h273v-238h-273z" />
<glyph unicode="&#xa9;" horiz-adv-x="2048" d="M290 307v751h171v171h170v170h786v-170h170v-171h171v-751h-171v-170h-170v-171h-786v171h-170v170h-171zM563 375h171v-170h580v170h171v615h-171v171h-580v-171h-171v-615zM631 478v409h171v171h444v-239h-341v-273h341v-239h-444v171h-171z" />
<glyph unicode="&#xaa;" d="M119 137v750h171v171h615v-171h170v-921h-785v171h-171zM393 205h238v170h171v444h-409v-614z" />
<glyph unicode="&#xab;" horiz-adv-x="1365" d="M119 478v239h171v170h171v171h273v-239h-171v-170h-170v-103h170v-171h171v-238h-273v170h-171v171h-171zM631 478v239h171v170h171v171h273v-239h-171v-170h-170v-103h170v-171h171v-238h-273v170h-171v171h-171z" />
<glyph unicode="&#xac;" horiz-adv-x="1536" d="M119 649v238h1298v-580h-274v342h-1024z" />
<glyph unicode="&#xad;" d="M119 819v239h956v-239h-956z" />
<glyph unicode="&#xae;" horiz-adv-x="1706" d="M119 307v751h171v171h171v170h785v-170h171v-171h170v-751h-170v-170h-171v-171h-785v171h-171v170h-171zM393 375h68v615h-68v-615zM563 205h580v102h-170v171h-239v-171h-171v-102zM563 1058h512v-171h171v-238h-171v-103h171v-171h68v615h-171v171h-580v-103zM734 717 h239v102h-239v-102z" />
<glyph unicode="&#xaf;" horiz-adv-x="853" d="M119 1161v238h615v-238h-615z" />
<glyph unicode="&#xb0;" horiz-adv-x="853" d="M-51 990v409h170v171h444v-171h171v-409h-171v-171h-444v171h-170zM222 1058h239v273h-239v-273z" />
<glyph unicode="&#xb1;" horiz-adv-x="1536" d="M119 137v238h1298v-238h-1298zM119 649v238h512v171h274v-171h512v-238h-512v-171h-274v171h-512z" />
<glyph unicode="&#xb2;" horiz-adv-x="682" d="M-51 819v410h170v170h171v103h-341v239h444v-171h170v-409h-341v-103h341v-239h-614z" />
<glyph unicode="&#xb3;" horiz-adv-x="682" d="M-51 819v239h341v103h-171v238h171v103h-341v239h444v-171h170v-239h-170v-102h170v-239h-170v-171h-444z" />
<glyph unicode="&#xb4;" horiz-adv-x="682" d="M119 1161v238h171v171h273v-239h-170v-170h-274z" />
<glyph unicode="&#xb6;" d="M119 649v580h171v170h785v-1945h-273v1707h-68v-1707h-273v1024h-171v171h-171z" />
<glyph unicode="&#xb7;" horiz-adv-x="512" d="M119 478v239h274v-239h-274z" />
<glyph unicode="&#xb8;" horiz-adv-x="682" d="M119 34h274v-171h170v-238h-170v-171h-274v239h171v102h-171v239z" />
<glyph unicode="&#xb9;" horiz-adv-x="512" d="M-51 1331v239h170v171h274v-922h-274v512h-170z" />
<glyph unicode="&#xba;" d="M119 137v750h171v171h615v-171h170v-750h-170v-171h-615v171h-171zM393 205h238v170h171v444h-409v-614z" />
<glyph unicode="&#xbb;" horiz-adv-x="1365" d="M119 137v238h171v171h171v103h-171v170h-171v239h274v-171h170v-170h171v-239h-171v-171h-170v-170h-274zM631 137v238h171v171h171v103h-171v170h-171v239h274v-171h170v-170h171v-239h-171v-171h-170v-170h-274z" />
<glyph unicode="&#xbc;" horiz-adv-x="1706" d="M-222 34h171v171h170v170h171v171h171v171h170v170h171v171h171v171h170v170h171v171h171v171h273v-239h-171v-171h-170v-170h-171v-171h-171v-171h-170v-170h-171v-171h-171v-171h-170v-170h-171v-171h-171v-171h-273v239zM-51 1331v239h170v171h274v-922h-274v512h-170 zM973 -34v409h170v171h171v171h273v-922h-273v171h-341zM1246 205h68v102h-68v-102z" />
<glyph unicode="&#xbd;" horiz-adv-x="1706" d="M-222 34h171v171h170v170h171v171h171v171h170v170h171v171h171v171h170v170h171v171h171v171h273v-239h-171v-171h-170v-170h-171v-171h-171v-171h-170v-170h-171v-171h-171v-171h-170v-170h-171v-171h-171v-171h-273v239zM-51 1331v239h170v171h274v-922h-274v512h-170 zM973 -205v410h170v170h171v103h-341v239h444v-171h170v-409h-341v-103h341v-239h-614z" />
<glyph unicode="&#xbe;" horiz-adv-x="1877" d="M-51 34h170v171h171v170h171v171h170v171h171v170h171v171h170v171h171v170h171v171h170v171h274v-239h-171v-171h-171v-170h-170v-171h-171v-171h-171v-170h-170v-171h-171v-171h-171v-170h-170v-171h-171v-171h-273v239zM-51 819v239h341v103h-171v238h171v103h-341 v239h444v-171h170v-239h-170v-102h170v-239h-170v-171h-444zM1143 -34v409h171v171h171v171h273v-922h-273v171h-342zM1417 205h68v102h-68v-102z" />
<glyph unicode="&#xbf;" d="M119 205h171v170h171v342h273v-410h-171v-170h-170v-444h409v170h273v-238h-170v-171h-615v171h-171v580zM461 819v239h273v-239h-273z" />
<glyph unicode="&#xc0;" d="M119 -34v1263h171v170h615v-170h170v-1263h-273v683h-409v-683h-274zM290 1673v238h273v-170h171v-239h-273v171h-171zM393 887h238v171h171v103h-409v-274z" />
<glyph unicode="&#xc1;" d="M119 -34v1263h171v170h615v-170h170v-1263h-273v683h-409v-683h-274zM393 887h238v171h171v103h-409v-274zM461 1502v239h170v170h274v-238h-171v-171h-273z" />
<glyph unicode="&#xc2;" d="M119 -34v1263h171v170h615v-170h170v-1263h-273v683h-409v-683h-274zM290 1502v239h171v170h273v-170h171v-239h-274v171h-68v-171h-273zM393 887h238v171h171v103h-409v-274z" />
<glyph unicode="&#xc3;" d="M119 -34v1263h171v170h615v-170h170v-1263h-273v683h-409v-683h-274zM119 1502v239h171v170h444v-170h68v170h273v-238h-170v-171h-444v171h-68v-171h-274zM393 887h238v171h171v103h-409v-274z" />
<glyph unicode="&#xc4;" d="M119 -34v1263h171v170h615v-170h170v-1263h-273v683h-409v-683h-274zM290 1502v239h273v-239h-273zM393 887h238v171h171v103h-409v-274zM631 1502v239h274v-239h-274z" />
<glyph unicode="&#xc5;" d="M119 -34v1263h171v170h615v-170h170v-1263h-273v683h-409v-683h-274zM290 1673v238h171v171h273v-171h171v-238h-171v-171h-273v171h-171zM393 887h238v171h171v103h-409v-274zM563 1741h68v102h-68v-102z" />
<glyph unicode="&#xc6;" horiz-adv-x="1877" d="M119 -34v409h171v512h171v342h170v170h1127v-238h-683v-274h512v-238h-512v-444h683v-239h-956v683h-239v-342h-170v-341h-274zM734 887h68v274h-68v-274z" />
<glyph unicode="&#xc7;" d="M119 137v1092h171v170h615v-170h170v-239h-273v171h-409v-956h238v170h444v-238h-170v-171h-171v-103h171v-238h-171v-171h-273v239h170v102h-170v171h-171v171h-171z" />
<glyph unicode="&#xc8;" d="M119 -34v1433h956v-238h-682v-274h512v-238h-512v-444h682v-239h-956zM290 1673v238h273v-170h171v-239h-273v171h-171z" />
<glyph unicode="&#xc9;" d="M119 -34v1433h956v-238h-682v-274h512v-238h-512v-444h682v-239h-956zM461 1502v239h170v170h274v-238h-171v-171h-273z" />
<glyph unicode="&#xca;" d="M119 -34v1433h956v-238h-682v-274h512v-238h-512v-444h682v-239h-956zM290 1502v239h171v170h273v-170h171v-239h-274v171h-68v-171h-273z" />
<glyph unicode="&#xcb;" d="M119 -34v1433h956v-238h-682v-274h512v-238h-512v-444h682v-239h-956zM290 1502v239h273v-239h-273zM631 1502v239h274v-239h-274z" />
<glyph unicode="&#xcc;" horiz-adv-x="512" d="M-51 1673v238h273v-170h171v-239h-274v171h-170zM119 -34v1433h274v-1433h-274z" />
<glyph unicode="&#xcd;" horiz-adv-x="512" d="M119 -34v1433h274v-1433h-274zM119 1502v239h171v170h273v-238h-170v-171h-274z" />
<glyph unicode="&#xce;" horiz-adv-x="512" d="M-51 1502v239h170v170h274v-170h170v-239h-273v171h-68v-171h-273zM119 -34v1433h274v-1433h-274z" />
<glyph unicode="&#xcf;" horiz-adv-x="512" d="M-51 1502v239h273v-239h-273zM119 -34v1433h274v-1433h-274zM290 1502v239h273v-239h-273z" />
<glyph unicode="&#xd0;" d="M-51 649v238h170v512h786v-170h170v-1092h-170v-171h-786v683h-170zM393 205h238v170h171v786h-409v-274h170v-238h-170v-444z" />
<glyph unicode="&#xd1;" d="M119 -34v1433h444v-341h171v-512h68v853h273v-1433h-273v171h-171v341h-170v512h-68v-1024h-274zM119 1502v239h171v170h444v-170h68v170h273v-238h-170v-171h-444v171h-68v-171h-274z" />
<glyph unicode="&#xd2;" d="M119 137v1092h171v170h615v-170h170v-1092h-170v-171h-615v171h-171zM290 1673v238h273v-170h171v-239h-273v171h-171zM393 205h238v170h171v786h-409v-956z" />
<glyph unicode="&#xd3;" d="M119 137v1092h171v170h615v-170h170v-1092h-170v-171h-615v171h-171zM393 205h238v170h171v786h-409v-956zM461 1502v239h170v170h274v-238h-171v-171h-273z" />
<glyph unicode="&#xd4;" d="M119 137v1092h171v170h615v-170h170v-1092h-170v-171h-615v171h-171zM290 1502v239h171v170h273v-170h171v-239h-274v171h-68v-171h-273zM393 205h238v170h171v786h-409v-956z" />
<glyph unicode="&#xd5;" d="M119 137v1092h171v170h615v-170h170v-1092h-170v-171h-615v171h-171zM119 1502v239h171v170h444v-170h68v170h273v-238h-170v-171h-444v171h-68v-171h-274zM393 205h238v170h171v786h-409v-956z" />
<glyph unicode="&#xd6;" d="M119 137v1092h171v170h615v-170h170v-1092h-170v-171h-615v171h-171zM290 1502v239h273v-239h-273zM393 205h238v170h171v786h-409v-956zM631 1502v239h274v-239h-274z" />
<glyph unicode="&#xd7;" horiz-adv-x="1877" d="M119 -34v239h171v170h171v171h170v171h171v102h-171v171h-170v171h-171v170h-171v239h274v-171h170v-170h171v-171h171v-171h68v171h170v171h171v170h171v171h273v-239h-171v-170h-170v-171h-171v-171h-171v-102h171v-171h171v-171h170v-170h171v-239h-273v171h-171v170 h-171v171h-170v171h-68v-171h-171v-171h-171v-170h-170v-171h-274z" />
<glyph unicode="&#xd8;" d="M119 34h171v103h-171v1092h171v170h512v171h273v-239h-170v-102h170v-1092h-170v-171h-512v-171h-274v239zM393 546h68v341h170v274h-238v-615zM563 205h68v170h171v444h-68v-341h-171v-273z" />
<glyph unicode="&#xd9;" d="M119 -34v1433h274v-1194h238v170h171v1024h273v-1262h-170v-171h-786zM290 1673v238h273v-170h171v-239h-273v171h-171z" />
<glyph unicode="&#xda;" d="M119 -34v1433h274v-1194h238v170h171v1024h273v-1262h-170v-171h-786zM461 1502v239h170v170h274v-238h-171v-171h-273z" />
<glyph unicode="&#xdb;" d="M119 -34v1433h274v-1194h238v170h171v1024h273v-1262h-170v-171h-786zM290 1502v239h171v170h273v-170h171v-239h-274v171h-68v-171h-273z" />
<glyph unicode="&#xdc;" d="M119 -34v1433h274v-1194h238v170h171v1024h273v-1262h-170v-171h-786zM290 1502v239h273v-239h-273zM631 1502v239h274v-239h-274z" />
<glyph unicode="&#xdd;" d="M119 819v580h274v-512h170v-341h68v341h171v512h273v-580h-170v-341h-171v-341h-171v-171h-273v239h171v273h-171v341h-171zM461 1502v239h170v170h274v-238h-171v-171h-273z" />
<glyph unicode="&#xde;" horiz-adv-x="1024" d="M119 -34v1433h274v-341h341v-171h171v-409h-171v-171h-341v-341h-274zM393 546h68v171h170v102h-238v-273z" />
<glyph unicode="&#xdf;" d="M119 -34v1263h171v170h444v-170h171v-512h170v-580h-170v-171h-274v409h171v274h-341v238h170v274h-238v-1195h-274z" />
<glyph unicode="&#xe0;" d="M119 137v750h171v171h615v-171h170v-921h-785v171h-171zM290 1331v239h273v-171h171v-238h-273v170h-171zM393 205h238v170h171v444h-409v-614z" />
<glyph unicode="&#xe1;" d="M119 137v750h171v171h615v-171h170v-921h-785v171h-171zM393 205h238v170h171v444h-409v-614zM461 1161v238h170v171h274v-239h-171v-170h-273z" />
<glyph unicode="&#xe2;" d="M119 137v750h171v171h615v-171h170v-921h-785v171h-171zM290 1161v238h171v171h273v-171h171v-238h-274v170h-68v-170h-273zM393 205h238v170h171v444h-409v-614z" />
<glyph unicode="&#xe3;" d="M119 137v750h171v171h615v-171h170v-921h-785v171h-171zM119 1161v238h171v171h444v-171h68v171h273v-239h-170v-170h-444v170h-68v-170h-274zM393 205h238v170h171v444h-409v-614z" />
<glyph unicode="&#xe4;" d="M119 137v750h171v171h615v-171h170v-921h-785v171h-171zM393 205h238v170h171v444h-409v-614z" />
<glyph unicode="&#xe5;" d="M119 137v750h171v171h615v-171h170v-921h-785v171h-171zM290 1331v239h171v171h273v-171h171v-239h-171v-170h-273v170h-171zM393 205h238v170h171v444h-409v-614zM563 1399h68v103h-68v-103z" />
<glyph unicode="&#xe6;" horiz-adv-x="1877" d="M119 137v409h171v103h-171v238h171v171h615v-171h68v171h614v-171h171v-409h-683v-273h239v170h444v-238h-171v-171h-1297v171h-171zM393 205h238v170h171v103h-409v-273zM393 717h409v102h-409v-102zM1075 717h410v102h-410v-102z" />
<glyph unicode="&#xe7;" d="M119 137v750h171v171h615v-171h170v-238h-273v170h-409v-614h238v170h444v-238h-170v-171h-171v-103h171v-238h-171v-171h-273v239h170v102h-170v171h-171v171h-171z" />
<glyph unicode="&#xe8;" d="M119 137v750h171v171h615v-171h170v-409h-682v-273h238v170h444v-238h-170v-171h-615v171h-171zM290 1331v239h273v-171h171v-238h-273v170h-171zM393 717h409v102h-409v-102z" />
<glyph unicode="&#xe9;" d="M119 137v750h171v171h615v-171h170v-409h-682v-273h238v170h444v-238h-170v-171h-615v171h-171zM393 717h409v102h-409v-102zM461 1161v238h170v171h274v-239h-171v-170h-273z" />
<glyph unicode="&#xea;" d="M119 137v750h171v171h615v-171h170v-409h-682v-273h238v170h444v-238h-170v-171h-615v171h-171zM290 1161v238h171v171h273v-171h171v-238h-274v170h-68v-170h-273zM393 717h409v102h-409v-102z" />
<glyph unicode="&#xeb;" d="M119 137v750h171v171h615v-171h170v-409h-682v-273h238v170h444v-238h-170v-171h-615v171h-171zM290 1161v238h273v-238h-273zM393 717h409v102h-409v-102zM631 1161v238h274v-238h-274z" />
<glyph unicode="&#xec;" horiz-adv-x="512" d="M-51 1331v239h273v-171h171v-238h-274v170h-170zM119 -34v1092h274v-1092h-274z" />
<glyph unicode="&#xed;" horiz-adv-x="512" d="M119 -34v1092h274v-1092h-274zM119 1161v238h171v171h273v-239h-170v-170h-274z" />
<glyph unicode="&#xee;" horiz-adv-x="512" d="M-51 1161v238h170v171h274v-171h170v-238h-273v170h-68v-170h-273zM119 -34v1092h274v-1092h-274z" />
<glyph unicode="&#xef;" horiz-adv-x="512" d="M-51 1161v238h273v-238h-273zM119 -34v1092h274v-1092h-274zM290 1161v238h273v-238h-273z" />
<glyph unicode="&#xf0;" d="M119 137v750h171v171h512v103h-171v170h-341v239h615v-171h68v171h273v-239h-171v-1194h-170v-171h-615v171h-171zM393 205h238v170h171v444h-409v-614z" />
<glyph unicode="&#xf1;" d="M119 -34v1092h274v-171h68v171h444v-171h170v-921h-273v853h-239v-170h-170v-683h-274zM119 1161v238h171v171h444v-171h68v171h273v-239h-170v-170h-444v170h-68v-170h-274z" />
<glyph unicode="&#xf2;" d="M119 137v750h171v171h615v-171h170v-750h-170v-171h-615v171h-171zM290 1331v239h273v-171h171v-238h-273v170h-171zM393 205h238v170h171v444h-409v-614z" />
<glyph unicode="&#xf3;" d="M119 137v750h171v171h615v-171h170v-750h-170v-171h-615v171h-171zM393 205h238v170h171v444h-409v-614zM461 1161v238h170v171h274v-239h-171v-170h-273z" />
<glyph unicode="&#xf4;" d="M119 137v750h171v171h615v-171h170v-750h-170v-171h-615v171h-171zM290 1161v238h171v171h273v-171h171v-238h-274v170h-68v-170h-273zM393 205h238v170h171v444h-409v-614z" />
<glyph unicode="&#xf5;" d="M119 137v750h171v171h615v-171h170v-750h-170v-171h-615v171h-171zM119 1161v238h171v171h444v-171h68v171h273v-239h-170v-170h-444v170h-68v-170h-274zM393 205h238v170h171v444h-409v-614z" />
<glyph unicode="&#xf6;" d="M119 137v750h171v171h615v-171h170v-750h-170v-171h-615v171h-171zM290 1161v238h273v-238h-273zM393 205h238v170h171v444h-409v-614zM631 1161v238h274v-238h-274z" />
<glyph unicode="&#xf7;" horiz-adv-x="1536" d="M119 649v238h1298v-238h-1298zM631 137v238h274v-238h-274zM631 1161v238h274v-238h-274z" />
<glyph unicode="&#xf8;" d="M119 34h171v103h-171v750h171v171h512v341h273v-409h-170v-103h170v-750h-170v-171h-512v-341h-274v409zM393 375h68v342h170v102h-238v-444zM563 205h68v102h-68v-102zM734 375h68v274h-68v-274z" />
<glyph unicode="&#xf9;" d="M119 137v921h274v-853h238v170h171v683h273v-921h-170v-171h-615v171h-171zM290 1331v239h273v-171h171v-238h-273v170h-171z" />
<glyph unicode="&#xfa;" d="M119 137v921h274v-853h238v170h171v683h273v-921h-170v-171h-615v171h-171zM461 1161v238h170v171h274v-239h-171v-170h-273z" />
<glyph unicode="&#xfb;" d="M119 137v921h274v-853h238v170h171v683h273v-921h-170v-171h-615v171h-171zM290 1161v238h171v171h273v-171h171v-238h-274v170h-68v-170h-273z" />
<glyph unicode="&#xfc;" d="M119 137v921h274v-853h238v170h171v683h273v-921h-170v-171h-615v171h-171zM290 1161v238h273v-238h-273zM631 1161v238h274v-238h-274z" />
<glyph unicode="&#xfd;" d="M119 -307h171v170h171v274h-171v341h-171v580h274v-512h170v-171h68v171h171v512h273v-580h-170v-341h-171v-342h-171v-170h-170v-171h-274v239zM461 1161v238h170v171h274v-239h-171v-170h-273z" />
<glyph unicode="&#xfe;" d="M119 -546v2116h274v-512h512v-171h170v-750h-170v-171h-512v-512h-274zM393 205h238v170h171v444h-409v-614z" />
<glyph unicode="&#xff;" d="M119 -307h171v170h171v274h-171v341h-171v580h274v-512h170v-171h68v171h171v512h273v-580h-170v-341h-171v-342h-171v-170h-170v-171h-274v239zM290 1161v238h273v-238h-273zM631 1161v238h274v-238h-274z" />
<glyph unicode="&#x152;" horiz-adv-x="1877" d="M119 137v1092h171v170h615v-170h68v170h785v-238h-683v-274h512v-238h-512v-444h683v-239h-785v171h-68v-171h-615v171h-171zM393 205h238v170h171v786h-409v-956z" />
<glyph unicode="&#x153;" horiz-adv-x="1877" d="M119 137v750h171v171h615v-171h68v171h614v-171h171v-409h-683v-273h239v170h444v-238h-171v-171h-614v171h-68v-171h-615v171h-171zM393 205h238v170h171v444h-409v-614zM1075 717h410v102h-410v-102z" />
<glyph unicode="&#x178;" d="M119 819v580h274v-512h170v-341h68v341h171v512h273v-580h-170v-341h-171v-341h-171v-171h-273v239h171v273h-171v341h-171zM290 1502v239h273v-239h-273zM631 1502v239h274v-239h-274z" />
<glyph unicode="&#x2c6;" horiz-adv-x="853" d="M119 1161v238h171v171h273v-171h171v-238h-273v170h-68v-170h-274z" />
<glyph unicode="&#x2dc;" d="M119 1161v238h171v171h444v-171h68v171h273v-239h-170v-170h-444v170h-68v-170h-274z" />
<glyph unicode="&#x2000;" horiz-adv-x="1041" />
<glyph unicode="&#x2001;" horiz-adv-x="2082" />
<glyph unicode="&#x2002;" horiz-adv-x="1041" />
<glyph unicode="&#x2003;" horiz-adv-x="2082" />
<glyph unicode="&#x2004;" horiz-adv-x="694" />
<glyph unicode="&#x2005;" horiz-adv-x="520" />
<glyph unicode="&#x2006;" horiz-adv-x="347" />
<glyph unicode="&#x2007;" horiz-adv-x="347" />
<glyph unicode="&#x2008;" horiz-adv-x="260" />
<glyph unicode="&#x2009;" horiz-adv-x="416" />
<glyph unicode="&#x200a;" horiz-adv-x="115" />
<glyph unicode="&#x2010;" d="M119 819v239h956v-239h-956z" />
<glyph unicode="&#x2011;" d="M119 819v239h956v-239h-956z" />
<glyph unicode="&#x2012;" d="M119 819v239h956v-239h-956z" />
<glyph unicode="&#x2013;" horiz-adv-x="1024" d="M119 819v239h786v-239h-786z" />
<glyph unicode="&#x2014;" horiz-adv-x="2048" d="M119 819v239h1810v-239h-1810z" />
<glyph unicode="&#x2018;" horiz-adv-x="682" d="M119 819v410h171v170h273v-238h-170v-103h170v-239h-444z" />
<glyph unicode="&#x2019;" horiz-adv-x="682" d="M119 990v239h171v102h-171v239h444v-409h-170v-171h-274z" />
<glyph unicode="&#x201a;" horiz-adv-x="512" d="M-51 -34v239h444v-410h-171v-170h-273v238h170v103h-170z" />
<glyph unicode="&#x201c;" horiz-adv-x="853" d="M-51 819v410h170v170h274v-238h-171v-103h171v-239h-444zM461 819v410h170v170h274v-238h-171v-103h171v-239h-444zM17698 1331v239h273v-239h-273z" />
<glyph unicode="&#x201d;" horiz-adv-x="853" d="M-51 819v239h170v103h-170v238h444v-409h-171v-171h-273zM461 819v239h170v103h-170v238h444v-409h-171v-171h-273z" />
<glyph unicode="&#x201e;" horiz-adv-x="1024" d="M-51 -34v239h444v-410h-171v-170h-273v238h170v103h-170zM461 -34v239h444v-410h-171v-170h-273v238h170v103h-170z" />
<glyph unicode="&#x2022;" horiz-adv-x="853" d="M119 307v580h615v-580h-615z" />
<glyph unicode="&#x2026;" horiz-adv-x="853" d="M-51 -34v239h273v-239h-273zM290 -34v239h273v-239h-273zM631 -34v239h274v-239h-274z" />
<glyph unicode="&#x202f;" horiz-adv-x="416" />
<glyph unicode="&#x2039;" horiz-adv-x="2048" d="M461 478v239h170v170h171v171h273v-239h-170v-170h-171v-103h171v-171h170v-238h-273v170h-171v171h-170z" />
<glyph unicode="&#x203a;" horiz-adv-x="2048" d="M461 137v238h170v171h171v103h-171v170h-170v239h273v-171h171v-170h170v-239h-170v-171h-171v-170h-273z" />
<glyph unicode="&#x205f;" horiz-adv-x="520" />
<glyph unicode="&#x20ac;" horiz-adv-x="1365" d="M119 478v239h171v102h-171v239h171v171h171v170h614v-170h171v-239h-273v171h-410v-103h342v-239h-342v-102h342v-239h-342v-273h239v170h444v-238h-171v-171h-614v171h-171v341h-171z" />
<glyph unicode="&#x2122;" horiz-adv-x="2389" d="M-51 1673v238h956v-238h-342v-854h-273v854h-341zM973 819v1092h444v-170h170v-512h68v512h171v170h444v-1092h-273v854h-68v-512h-171v-342h-273v342h-171v512h-68v-854h-273z" />
<glyph unicode="&#x25fc;" horiz-adv-x="1058" d="M0 0v1058h1058v-1058h-1058z" />
<glyph unicode="&#xfb01;" d="M-51 -307h170v1706h171v171h615v-171h170v-238h-273v170h-409v-273h341v-239h-341v-1194h-171v-171h-273v239zM802 -34v1092h273v-1092h-273z" />
<glyph unicode="&#xfb02;" d="M-51 -307h170v1706h171v171h785v-1365h171v-239h-273v171h-171v1194h-409v-273h341v-239h-341v-1194h-171v-171h-273v239z" />
</font>
</defs>
</svg>
